<?xml version="1.0" encoding="UTF-8"?>
<svg width="80px" height="95px" viewBox="0 0 80 95" version="1.1" xmlns="http://www.w3.org/2000/svg" xmlns:xlink="http://www.w3.org/1999/xlink">
    <!-- Generator: Sketch 63.1 (92452) - https://sketch.com -->
    <title>Group 15 Copy</title>
    <desc>Created with Sketch.</desc>
    <defs>
        <polygon id="path-1" points="0.000591885442 0.00378042959 10.3465394 0.00378042959 10.3465394 13.7465967 0.000591885442 13.7465967"></polygon>
    </defs>
    <g id="Page-1" stroke="none" stroke-width="1" fill="none" fill-rule="evenodd">
        <g id="Homepage-1440px-DEF" transform="translate(-784.000000, -199.000000)">
            <g id="Group-15-Copy" transform="translate(784.000000, 199.000000)">
                <path d="M52.8349403,-1.90930788e-05 L40.0710263,7.33630549 L27.3118854,-1.90930788e-05 L0.77326969,15.254969 L0.77326969,45.7498616 L40.0681623,68.3320095 L79.3611456,45.7561623 L79.3611456,15.2490501 L52.8349403,-1.90930788e-05 Z M53.8396181,2.90881146 L63.5755609,8.50270167 L63.4505012,8.57430072 L53.8396181,14.0902912 L53.8396181,2.90881146 Z M51.699284,14.0186921 L42.0821002,8.49640095 L42.2054415,8.42499284 L51.8226253,2.90881146 L51.8226253,14.0902912 L51.699284,14.0186921 Z M28.322673,2.90881146 L38.0601432,8.50270167 L37.936611,8.57430072 L28.322673,14.0887637 L28.322673,2.90881146 Z M16.5634368,8.49640095 L16.6884964,8.42499284 L26.297852,2.90881146 L26.297852,14.0902912 L16.5634368,8.49640095 Z M64.4612888,21.3473795 L54.8504057,15.831389 L64.5863484,10.2376897 L64.5863484,21.4189785 L64.4612888,21.3473795 Z M38.9367064,21.3473795 L29.3258234,15.831389 L39.0602387,10.2376897 L39.0602387,21.4189785 L38.9367064,21.3473795 Z M13.4121241,21.3473795 L3.79665871,15.831389 L13.5356563,10.2376897 L13.5356563,21.4189785 L13.4121241,21.3473795 Z M66.6203341,10.2437995 L76.3593317,15.8374988 L76.234463,15.9090979 L66.6203341,21.4250883 L66.6203341,10.2437995 Z M41.0713126,10.2437995 L50.8057279,15.8374988 L50.6808592,15.9090979 L41.0713126,21.4250883 L41.0713126,10.2437995 Z M15.5602864,10.2437995 L25.2947017,15.8374988 L25.1698329,15.9090979 L15.5602864,21.4250883 L15.5602864,10.2437995 Z M77.2420048,28.6775943 L67.6311217,23.1661862 L77.365537,17.569432 L77.365537,28.7491933 L77.2420048,28.6775943 Z M51.6914558,28.6775943 L42.0821002,23.1661862 L51.8165155,17.569432 L51.8165155,28.7491933 L51.6914558,28.6775943 Z M26.1745107,28.6775943 L16.5634368,23.1661862 L26.297852,17.569432 L26.297852,28.7491933 L26.1745107,28.6775943 Z M53.8335084,17.5801241 L63.5681146,23.1768783 L63.4445823,23.2484773 L53.8335084,28.7598854 L53.8335084,17.5801241 Z M28.322673,17.5801241 L38.0601432,23.1768783 L37.936611,23.2484773 L28.322673,28.7598854 L28.322673,17.5801241 Z M2.79026253,17.5801241 L12.5248687,23.1768783 L12.4013365,23.2484773 L2.79026253,28.7598854 L2.79026253,17.5801241 Z M38.9367064,36.0093365 L29.3258234,30.4979284 L39.0602387,24.9011742 L39.0602387,36.0809356 L38.9367064,36.0093365 Z M54.8504057,30.4979284 L64.571074,24.9042291 L64.571074,36.0839905 L54.8504057,30.4979284 Z M13.4121241,36.0139189 L3.79665871,30.4979284 L13.5356563,24.9042291 L13.5356563,36.0839905 L13.4121241,36.0139189 Z M66.6203341,24.9149212 L76.3593317,30.5086205 L76.234463,30.5802196 L66.6203341,36.09621 L66.6203341,24.9149212 Z M41.0772315,24.9149212 L50.8131742,30.5086205 L50.6881146,30.5802196 L41.0772315,36.09621 L41.0772315,24.9149212 Z M15.5602864,24.9149212 L25.2947017,30.5086205 L25.1698329,30.5802196 L15.5602864,36.09621 L15.5602864,24.9149212 Z M77.2420048,43.348716 L67.6311217,37.8357804 L77.365537,32.2390263 L77.365537,43.4187876 L77.2420048,43.348716 Z M42.0821002,37.8250883 L42.2054415,37.7534893 L51.8165155,32.2390263 L51.8165155,43.4187876 L42.0821002,37.8250883 Z M16.5634368,37.8250883 L16.6884964,37.7534893 L26.297852,32.2390263 L26.297852,43.4187876 L16.5634368,37.8250883 Z M53.8335084,32.2497184 L63.5681146,37.8464726 L63.4445823,37.9180716 L53.8335084,43.4294797 L53.8335084,32.2497184 Z M28.322673,32.2497184 L38.0601432,37.8464726 L37.936611,37.9180716 L28.322673,43.4294797 L28.322673,32.2497184 Z M2.79026253,32.2497184 L2.91379475,32.3199809 L12.5248687,37.8357804 L2.79026253,43.4294797 L2.79026253,32.2497184 Z M38.9367064,50.6833222 L29.3258234,45.1734415 L39.0602387,39.5738234 L39.0602387,50.7535847 L38.9367064,50.6833222 Z M13.4121241,50.6833222 L3.79665871,45.1734415 L13.5356563,39.5738234 L13.5356563,50.7535847 L13.4121241,50.6833222 Z M64.4477327,50.6833222 L54.8504057,45.1734415 L64.571074,39.5751599 L64.571074,50.7551122 L64.4477327,50.6833222 Z M41.0772315,39.5814606 L50.8131742,45.1751599 L50.6881146,45.2467589 L41.0772315,50.761222 L41.0772315,39.5814606 Z M66.6203341,39.5843246 L76.3425298,45.1751599 L66.6203341,50.7658043 L66.6203341,39.5843246 Z M15.5524582,39.5843246 L15.6759905,39.6561146 L25.2870644,45.1751599 L15.5524582,50.7658043 L15.5524582,39.5843246 Z M42.0821002,52.4931551 L42.2054415,52.4215561 L51.8165155,46.9086205 L51.8165155,58.0899093 L42.0821002,52.4931551 Z M16.5634368,52.4992649 L16.6884964,52.4276659 L26.297852,46.9162578 L26.297852,58.0958282 L16.5634368,52.4992649 Z M53.8396181,46.9208401 L63.5755609,52.512821 L63.4505012,52.5848019 L53.8396181,58.1006014 L53.8396181,46.9208401 Z M28.322673,46.9208401 L28.4462053,46.9909117 L38.0601432,52.5023198 L28.322673,58.099074 L28.322673,46.9208401 Z M38.9428162,65.3529165 L29.3273508,59.8371169 L39.0678759,54.2434177 L39.0678759,65.4247064 L38.9428162,65.3529165 Z M41.0713126,54.2510549 L50.8057279,59.8493365 L50.6808592,59.9194081 L41.0713126,65.4308162 L41.0713126,54.2510549 Z" id="Fill-1" fill="#000000"></path>
                <polygon id="Fill-2" fill="#000000" points="38.9081814 80.8279714 38.9081814 86.5190453 32.8694224 86.5190453 32.8694224 80.8279714 30.3674654 80.8279714 30.3674654 94.2150835 32.8694224 94.2150835 32.8694224 88.5222912 38.9081814 88.5222912 38.9081814 94.2150835 41.4284678 94.2150835 41.4284678 80.8279714"></polygon>
                <g id="Group-14" transform="translate(0.000000, 80.464344)">
                    <path d="M44.3839809,8.65785203 L44.3839809,0.364200477 L46.9040764,0.364200477 L46.9040764,8.470358 C46.9040764,10.9232458 47.6954845,11.9342243 49.6880382,11.9342243 C51.6257947,11.9342243 52.6046969,11.0727446 52.6046969,8.30119332 L52.6046969,0.364200477 L55.1247924,0.364200477 L55.1247924,8.50854415 C55.1247924,12.0088783 53.225222,13.9374702 49.6698998,13.9374702 C46.3018807,13.9374702 44.3839809,12.103389 44.3839809,8.65785203" id="Fill-3" fill="#000000"></path>
                    <path d="M58.0993031,0.363551313 L62.9155322,0.363551313 C65.6796372,0.363551313 67.3168687,1.41080668 67.3168687,3.84555609 L67.3168687,3.92040095 C67.3168687,5.24985203 66.714673,6.29863484 65.1902816,6.76679714 C67.0150072,7.16011456 67.8810692,8.15257279 67.8810692,9.93166587 L67.8810692,10.0065107 C67.8810692,12.4962482 66.2255084,13.7508544 63.2723819,13.7508544 L58.0993031,13.7508544 L58.0993031,0.363551313 Z M62.6136706,5.99849165 C64.2692315,5.99849165 64.9080859,5.40068735 64.9080859,4.03324105 L64.9080859,3.95839618 C64.9080859,2.68546062 64.1747208,2.14130788 62.5754845,2.14130788 L60.5449356,2.14130788 L60.5449356,5.99849165 L62.6136706,5.99849165 Z M62.9720477,11.9717613 C64.6444105,11.9717613 65.4172983,11.2231217 65.4172983,9.83715513 L65.4172983,9.76269212 C65.4172983,8.37672554 64.6444105,7.68460143 62.8011647,7.68460143 L60.5449356,7.68460143 L60.5449356,11.9717613 L62.9720477,11.9717613 Z" id="Fill-5" fill="#000000"></path>
                    <g id="Group-9" transform="translate(69.498807, 0.190931)">
                        <mask id="mask-2" fill="white">
                            <use xlink:href="#path-1"></use>
                        </mask>
                        <g id="Clip-8"></g>
                        <path d="M0.000591885442,9.40292124 L2.40784726,9.40292124 C2.57720286,10.7508926 3.12307399,11.8743294 5.3991599,11.8743294 C6.88574702,11.8743294 7.93911217,11.0495084 7.93911217,9.81456802 C7.93911217,8.57829117 7.31858711,8.11012888 5.13548449,7.75480668 C1.92021002,7.32502148 0.395436754,6.3508926 0.395436754,3.84282578 C0.395436754,1.65189499 2.27686874,0.00378042959 5.08049642,0.00378042959 C7.97729833,0.00378042959 9.70770406,1.31356563 9.97157041,3.87929356 L7.67543675,3.87929356 C7.43142721,2.47537947 6.6220716,1.87604773 5.08049642,1.87604773 C3.55591408,1.87604773 2.76622434,2.606358 2.76622434,3.63547494 C2.76622434,4.72244391 3.21758473,5.26526014 5.54999523,5.60225298 C8.71066348,6.03222912 10.3465585,6.93170406 10.3465585,9.60874463 C10.3465585,11.9306539 8.3721432,13.7465967 5.3991599,13.7465967 C1.73099761,13.7465967 0.189613365,11.9306539 0.000591885442,9.40292124" id="Fill-7" fill="#000000" mask="url(#mask-2)"></path>
                    </g>
                    <path d="M3.81861575e-05,9.6126969 L2.27612411,9.6126969 C2.40729356,11.0168019 3.19717422,12.0657757 5.00376134,12.0657757 C6.75402387,12.0657757 7.56185203,11.2228162 7.56185203,9.89317422 C7.56185203,8.4325537 6.77216229,7.70243437 5.13493079,7.70243437 L4.10104057,7.70243437 L4.10104057,5.92486874 L5.06008592,5.92486874 C6.60299761,5.92486874 7.29817661,5.2126969 7.29817661,3.95809069 C7.29817661,2.87245823 6.60299761,2.06596659 5.21092124,2.06596659 C3.78104057,2.06596659 2.85865394,2.92725537 2.70915513,4.27675418 L0.489393795,4.27675418 C0.620563246,1.95484487 2.36929833,0.175369928 5.24757995,0.175369928 C8.05139857,0.175369928 9.68729356,1.78548926 9.68729356,3.77040573 C9.68729356,5.28754177 8.80290215,6.20515513 7.50552745,6.69145585 C9.0667685,7.04696897 10.1019952,8.1522673 10.1019952,9.93136038 C10.1019952,12.4025776 8.14438186,13.937852 5.06008592,13.937852 C1.86161337,13.937852 0.112878282,12.1784248 3.81861575e-05,9.6126969" id="Fill-10" fill="#000000"></path>
                    <path d="M12.6050024,0.363551313 L16.6863389,0.363551313 C21.3713986,0.363551313 23.646148,3.02245346 23.646148,6.91610501 L23.646148,7.08526969 C23.646148,10.9793031 21.3713986,13.7508544 16.6481527,13.7508544 L12.6050024,13.7508544 L12.6050024,0.363551313 Z M16.5734988,11.7840764 C19.5829499,11.7840764 21.0328783,10.0613079 21.0328783,7.10378998 L21.0328783,6.95429117 C21.0328783,4.06970883 19.7156468,2.32861098 16.5551695,2.32861098 L15.1069594,2.32861098 L15.1069594,11.7840764 L16.5734988,11.7840764 Z" id="Fill-12" fill="#000000"></path>
                </g>
            </g>
        </g>
    </g>
</svg>